<?xml version='1.0' encoding='iso-8859-1'?>
<svg version="1.1" xmlns="http://www.w3.org/2000/svg" viewBox="0 0 463 463" xmlns:xlink="http://www.w3.org/1999/xlink" enable-background="new 0 0 463 463">
  <g>
    <path d="m351,135.5c0-32.69-24.833-59.681-56.624-63.121 0.411-2.933 0.624-5.9 0.624-8.879 0-35.014-28.486-63.5-63.5-63.5s-63.5,28.486-63.5,63.5c0,2.979 0.213,5.946 0.624,8.879-31.791,3.44-56.624,30.431-56.624,63.121 0,19.613 9.105,37.981 24.263,49.919 0.034,0.13 0.059,0.261 0.101,0.389l88,272c1.001,3.095 3.883,5.191 7.136,5.191s6.135-2.097 7.136-5.191l88-272c0.04-0.122 0.063-0.247 0.096-0.371 15.3-11.996 24.268-30.237 24.268-49.937zm-15,0c0,16.406-8.156,31.478-21.838,40.5h-2.508c-0.013,0-0.025,0-0.038,0h-50.774c-13.686-9.021-21.842-24.082-21.842-40.5 0-26.743 21.757-48.5 48.5-48.5s48.5,21.757 48.5,48.5zm-97.448,40.5h-14.104c2.706-3.26 5.063-6.775 7.052-10.489 1.99,3.713 4.346,7.229 7.052,10.489zm-7.052-161c26.743,0 48.5,21.757 48.5,48.5 0,3.057-0.299,6.091-0.861,9.068-20.64,2.729-38.184,15.394-47.639,33.031-9.456-17.637-27-30.303-47.64-33.032-0.562-2.976-0.86-6.011-0.86-9.068 0-26.742 21.757-48.499 48.5-48.499zm-104.5,120.5c0-26.743 21.757-48.5 48.5-48.5s48.5,21.757 48.5,48.5c0,16.417-8.155,31.478-21.84,40.5h-53.345c-13.535-8.939-21.815-24.156-21.815-40.5zm145.555,55.5l-3.838,1.535c-3.846,1.539-5.717,5.903-4.179,9.749 1.173,2.933 3.989,4.717 6.966,4.717 0.928,0 1.87-0.173 2.783-0.538l34.345-13.738-14.807,45.767-17.114,6.845c-3.846,1.538-5.717,5.903-4.179,9.749 1.173,2.933 3.989,4.717 6.966,4.717 0.927,0 1.87-0.173 2.783-0.538l5.54-2.216-14.807,45.767-28.8,11.52c-3.846,1.538-5.717,5.903-4.179,9.749 1.173,2.933 3.989,4.717 6.966,4.717 0.927,0 1.87-0.173 2.783-0.538l17.226-6.89-14.807,45.767-36.663,14.666-11.422-35.304 18.166-7.267c3.846-1.539 5.717-5.903 4.179-9.749-1.539-3.847-5.907-5.716-9.749-4.179l-17.224,6.89-11.406-35.254 22.197-8.878c3.846-1.538 5.717-5.903 4.179-9.749s-5.904-5.718-9.749-4.179l-21.255,8.501-11.414-35.279 28.991-11.596c3.846-1.538 5.717-5.903 4.179-9.749-1.539-3.846-5.903-5.718-9.749-4.179l-28.049,11.219-13.604-42.055h118.745zm-41.055,240.135l-11.331-35.024 26.031-10.413-14.7,45.437z"/>
    <path d="m175.5,119c9.098,0 16.5,7.402 16.5,16.5 0,4.143 3.357,7.5 7.5,7.5s7.5-3.357 7.5-7.5c0-17.369-14.131-31.5-31.5-31.5-4.143,0-7.5,3.357-7.5,7.5s3.357,7.5 7.5,7.5z"/>
    <path d="m231.5,47c9.098,0 16.5,7.402 16.5,16.5 0,4.143 3.357,7.5 7.5,7.5s7.5-3.357 7.5-7.5c0-17.369-14.131-31.5-31.5-31.5-4.143,0-7.5,3.357-7.5,7.5s3.357,7.5 7.5,7.5z"/>
    <path d="m280,111.5c0,4.143 3.357,7.5 7.5,7.5 9.098,0 16.5,7.402 16.5,16.5 0,4.143 3.357,7.5 7.5,7.5s7.5-3.357 7.5-7.5c0-17.369-14.131-31.5-31.5-31.5-4.143,0-7.5,3.357-7.5,7.5z"/>
    <path d="m225.877,225.252c0.928,0 1.87-0.173 2.783-0.538l16.625-6.65c3.847-1.539 5.717-5.903 4.179-9.749-1.539-3.847-5.906-5.715-9.749-4.179l-16.625,6.65c-3.847,1.539-5.717,5.903-4.179,9.749 1.174,2.933 3.989,4.717 6.966,4.717z"/>
    <path d="m231.713,263.337c-3.846,1.538-5.717,5.903-4.179,9.749 1.173,2.933 3.989,4.717 6.966,4.717 0.927,0 1.87-0.173 2.783-0.538l17.003-6.801c3.846-1.538 5.717-5.903 4.179-9.749s-5.904-5.718-9.749-4.179l-17.003,6.801z"/>
  </g>
</svg>
