<?xml version="1.0" encoding="iso-8859-1"?>
<!-- Generator: Adobe Illustrator 18.0.0, SVG Export Plug-In . SVG Version: 6.00 Build 0)  -->
<!DOCTYPE svg PUBLIC "-//W3C//DTD SVG 1.1//EN" "http://www.w3.org/Graphics/SVG/1.1/DTD/svg11.dtd">
<svg version="1.1" id="Capa_1" xmlns="http://www.w3.org/2000/svg" xmlns:xlink="http://www.w3.org/1999/xlink" x="0px" y="0px"
	 viewBox="0 0 460.106 460.106" style="enable-background:new 0 0 460.106 460.106;" xml:space="preserve">
<g id="XMLID_23_">
	<circle id="XMLID_24_" cx="114.402" cy="42.643" r="42.634"/>
	<path id="XMLID_1018_" d="M382.604,257.953c-6.677,0-12.09,5.413-12.09,12.09v54.634H304.08c-6.677,0-12.09,5.413-12.09,12.09V392
		h-23.526c4.108-4.595,6.324-10.849,5.598-17.458l-10.313-93.829c-0.917-8.346-6.405-15.487-14.234-18.522l-44.402-17.209
		l-3.584-17.028l-7.491,2.488c-12.317,4.09-25.528,1.496-35.251-6.105c-2.411-1.885,1.362,2.481-52.484-64.583l63.904,49.973l0,0
		c0.002,0.002,0.004,0.003,0.006,0.005c5.04,3.938,11.831,5.153,17.98,3.111l36.62-12.161l36.62-12.161
		c10.083-3.347,15.617-14.258,12.244-24.419c-3.333-10.029-14.236-15.62-24.411-12.247c-0.003,0.001-0.006,0.002-0.009,0.003
		l-63.412,21.057l-57.871-45.255l57.698,24.974l-7.309-34.724c-3.276-15.565-18.55-25.527-34.115-22.251l-50.259,10.579
		c-2.565,0.54-10.377,2.387-15.611,6.794l-62.6,54.202C5.658,176,7.319,192.203,19.039,198.719l73.6,40.921l9.506,45.164
		l-5.043,61.213L48.98,426.004c-6.406,10.647-2.967,24.473,7.681,30.879c10.65,6.407,24.474,2.966,30.879-7.681l50.835-84.495
		c1.784-2.965,2.86-6.303,3.144-9.752l6.563-79.664l6.941-1.461l65.49,25.382l8.82,80.246c0.533,4.854,2.586,9.165,5.615,12.542
		h-27.234c-6.677,0-12.09,5.413-12.09,12.09V460h255.367c0-10.819,0-190.91,0-202.047H382.604z M61.94,178.37l15.059-13.038
		l5.104,24.249L61.94,178.37z"/>
</g>
<g>
</g>
<g>
</g>
<g>
</g>
<g>
</g>
<g>
</g>
<g>
</g>
<g>
</g>
<g>
</g>
<g>
</g>
<g>
</g>
<g>
</g>
<g>
</g>
<g>
</g>
<g>
</g>
<g>
</g>
</svg>
