<?xml version="1.0" encoding="iso-8859-1"?>
<!-- Generator: Adobe Illustrator 18.0.0, SVG Export Plug-In . SVG Version: 6.00 Build 0)  -->
<!DOCTYPE svg PUBLIC "-//W3C//DTD SVG 1.1//EN" "http://www.w3.org/Graphics/SVG/1.1/DTD/svg11.dtd">
<svg version="1.1" id="Capa_1" xmlns="http://www.w3.org/2000/svg" xmlns:xlink="http://www.w3.org/1999/xlink" x="0px" y="0px"
	 viewBox="0 0 460.006 460.006" style="enable-background:new 0 0 460.006 460.006;" xml:space="preserve">
<g id="XMLID_371_">
	<circle id="XMLID_380_" cx="229.992" cy="53.133" r="53.133"/>
	<path id="XMLID_372_" d="M447.065,376.629c-2.102-13.469-12.432-23.609-25.072-26.103c2.972-1.716,5.649-4.056,7.814-6.996
		c8.397-11.401,5.961-27.45-5.44-35.846l-64.601-47.574l-0.432-76.542c-0.167-33.286-27.383-60.365-60.669-60.365h-68.42h-0.506
		h-68.421c-33.286,0-60.502,27.079-60.669,60.349l-0.432,76.558l-64.6,47.574c-11.401,8.396-13.837,24.445-5.441,35.846
		c2.179,2.958,4.874,5.311,7.868,7.03c-12.023,2.389-22.095,11.672-24.791,24.401c-3.611,17.051,7.283,33.801,24.334,37.412
		l45.251,9.584c-4.851,4.378-7.709,10.86-7.17,17.879c0.879,11.458,10.449,20.17,21.752,20.17c1.597,0,129.734-9.029,133.093-9.667
		c2.642,0.429,130.404,9.667,132.052,9.667c11.303,0,20.874-8.713,21.752-20.17c0.54-7.038-2.334-13.535-7.209-17.913l45.289-9.55
		C438.667,408.909,449.661,393.265,447.065,376.629z M308.061,183.842l0.505,89.426c0.046,8.097,3.914,15.697,10.434,20.499
		l74.961,55.204c0.977,0.719,1.993,1.342,3.03,1.903l-99.102,3.952V183.867c0-2.804,2.269-5.078,5.073-5.086
		C305.765,178.774,308.046,181.037,308.061,183.842z M140.983,293.766c6.52-4.802,10.389-12.401,10.435-20.499l0.505-89.441
		c0,0,0-0.001,0-0.002c0.014-2.804,2.296-5.067,5.1-5.06s5.072,2.283,5.072,5.087v170.871l-99.081-3.861
		c1.03-0.559,2.039-1.177,3.009-1.891L140.983,293.766z"/>
</g>
<g>
</g>
<g>
</g>
<g>
</g>
<g>
</g>
<g>
</g>
<g>
</g>
<g>
</g>
<g>
</g>
<g>
</g>
<g>
</g>
<g>
</g>
<g>
</g>
<g>
</g>
<g>
</g>
<g>
</g>
</svg>
