<?xml version="1.0" encoding="iso-8859-1"?>
<!-- Generator: Adobe Illustrator 18.0.0, SVG Export Plug-In . SVG Version: 6.00 Build 0)  -->
<!DOCTYPE svg PUBLIC "-//W3C//DTD SVG 1.1//EN" "http://www.w3.org/Graphics/SVG/1.1/DTD/svg11.dtd">
<svg version="1.1" id="Capa_1" xmlns="http://www.w3.org/2000/svg" xmlns:xlink="http://www.w3.org/1999/xlink" x="0px" y="0px"
	 viewBox="0 0 459.705 459.705" style="enable-background:new 0 0 459.705 459.705;" xml:space="preserve">
<g id="XMLID_348_">
	<path id="XMLID_479_" d="M358.27,220.78c5.396-7.327,3.83-17.641-3.496-23.037l-41.517-30.575l-0.277-49.192
		c-0.108-21.392-17.599-38.796-38.991-38.796h-43.973h-0.325h-43.973c-21.392,0-38.883,17.404-38.991,38.786l-0.277,49.202
		l-41.517,30.575c-7.326,5.396-8.893,15.71-3.496,23.037c0.912,1.238,1.976,2.293,3.13,3.196v110.441
		c0,69.084,56.204,125.288,125.287,125.288S355.14,403.501,355.14,334.417V223.976C356.295,223.072,357.358,222.018,358.27,220.78z
		 M229.853,439.431c-57.905,0-105.013-47.109-105.013-105.014v-110.41l47.809-35.209c4.19-3.086,6.676-7.97,6.706-13.174
		l0.325-57.482c0.009-1.754,1.434-3.169,3.187-3.164s3.171,1.427,3.171,3.179l0.008,276.959c0,10.92,8.852,19.772,19.772,19.772
		c10.92,0,19.772-8.852,19.772-19.772V237.079v0h8.535v0v158.037c0,10.92,8.852,19.772,19.772,19.772
		c10.92,0,19.772-8.852,19.772-19.772l-0.351-276.944c-0.002-1.85,1.493-3.353,3.344-3.359c1.85-0.006,3.356,1.487,3.365,3.337
		v0.002l0.325,57.472c0.03,5.204,2.516,10.088,6.706,13.174l47.809,35.209v110.41C334.866,392.322,287.757,439.431,229.853,439.431z
		"/>
	<circle id="XMLID_481_" cx="229.853" cy="34.148" r="34.148"/>
</g>
<g>
</g>
<g>
</g>
<g>
</g>
<g>
</g>
<g>
</g>
<g>
</g>
<g>
</g>
<g>
</g>
<g>
</g>
<g>
</g>
<g>
</g>
<g>
</g>
<g>
</g>
<g>
</g>
<g>
</g>
</svg>
